<svg id="Ebene_1" data-name="Ebene 1" xmlns="http://www.w3.org/2000/svg" viewBox="0 0 373.29 90.45"><defs><style>.cls-1{fill:none;stroke:#95b3df;stroke-linecap:round;stroke-miterlimit:10;stroke-width:3.88px;}.cls-2{fill:#0a6ab3;}</style></defs><title>Zeichenfläche 1</title><line class="cls-1" x1="1.94" y1="13.25" x2="12.14" y2="7.54"/><line class="cls-1" x1="28.22" y1="13.64" x2="38" y2="7.15"/><line class="cls-1" x1="54.5" y1="14.03" x2="63.86" y2="6.76"/><line class="cls-1" x1="80.78" y1="14.42" x2="89.72" y2="6.37"/><line class="cls-1" x1="2.71" y1="37.76" x2="11.78" y2="31.19"/><line class="cls-1" x1="29.03" y1="38.13" x2="37.61" y2="30.82"/><line class="cls-1" x1="55.34" y1="38.5" x2="63.44" y2="30.45"/><line class="cls-1" x1="81.65" y1="38.87" x2="89.27" y2="30.08"/><line class="cls-1" x1="3.49" y1="62.27" x2="11.41" y2="54.83"/><line class="cls-1" x1="29.83" y1="62.62" x2="37.21" y2="54.49"/><line class="cls-1" x1="56.17" y1="62.96" x2="63.01" y2="54.14"/><line class="cls-1" x1="82.51" y1="63.31" x2="88.81" y2="53.79"/><line class="cls-1" x1="4.26" y1="86.78" x2="11.05" y2="78.48"/><line class="cls-1" x1="30.64" y1="87.1" x2="36.82" y2="78.15"/><line class="cls-1" x1="57.01" y1="87.43" x2="62.59" y2="77.83"/><line class="cls-1" x1="82.77" y1="88.51" x2="88.36" y2="77.51"/><path class="cls-2" d="M122,21.19V15.66h5.6c2.79,0,4.15,1,4.15,2.71v.06c0,1.81-1.47,2.76-3.89,2.76Zm0-8.51V7.33H127c2.27,0,3.53,1,3.53,2.56V10c0,1.84-1.52,2.73-3.79,2.73Zm-3.48,9.86a1.76,1.76,0,0,0,1.78,1.78h7.53c4.49,0,7.45-1.93,7.45-5.52v-.06c0-2.73-1.64-4.08-4-4.88a4.8,4.8,0,0,0,2.87-4.49V9.31A4.5,4.5,0,0,0,132.76,6,7.26,7.26,0,0,0,127.5,4.2h-7.25A1.76,1.76,0,0,0,118.47,6Z"/><path class="cls-2" d="M173.08,22.54a1.75,1.75,0,0,0,1.78,1.78h10.86a1.61,1.61,0,1,0,0-3.22h-9.11V5.81a1.77,1.77,0,0,0-3.53,0Z"/><path class="cls-2" d="M150,16.33,153.5,8.2,157,16.33Zm-6.32,6.49a1.61,1.61,0,0,0,1.63,1.64,1.69,1.69,0,0,0,1.64-1.12l1.7-3.88h9.77L160,23.22a1.81,1.81,0,0,0,1.72,1.24,1.66,1.66,0,0,0,1.67-1.69,1.59,1.59,0,0,0-.2-.75L155.74,5.35a2.2,2.2,0,0,0-2.09-1.44h-.18a2.24,2.24,0,0,0-2.12,1.44L143.88,22a1.72,1.72,0,0,0-.23.8"/><path class="cls-2" d="M224.8,22.74a1.74,1.74,0,0,0,3.47,0V10l10.35,13.39a2.23,2.23,0,0,0,1.84,1.06h.14a1.72,1.72,0,0,0,1.73-1.75V5.78a1.74,1.74,0,0,0-3.48,0V18.14l-10.06-13a2.24,2.24,0,0,0-1.84-1h-.37a1.76,1.76,0,0,0-1.78,1.78Z"/><path class="cls-2" d="M261.42,24.66a10.27,10.27,0,0,0,7.3-2.7,1.7,1.7,0,0,0,.57-1.26,1.68,1.68,0,0,0-1.66-1.64,1.61,1.61,0,0,0-1.07.4,7.18,7.18,0,0,1-5,1.93c-3.85,0-6.64-3.19-6.64-7.13V14.2c0-3.94,2.82-7.1,6.64-7.1a7.29,7.29,0,0,1,4.8,1.81,1.76,1.76,0,0,0,1.07.35,1.72,1.72,0,0,0,1.75-1.73,1.79,1.79,0,0,0-.69-1.41,10.54,10.54,0,0,0-6.9-2.26,10.17,10.17,0,0,0-10.37,10.4v.06a10.11,10.11,0,0,0,10.23,10.34"/><path class="cls-2" d="M281.1,24.32h11.84a1.58,1.58,0,0,0,1.58-1.58,1.6,1.6,0,0,0-1.58-1.58H282.85V15.75h8.65a1.57,1.57,0,0,0,1.58-1.55,1.6,1.6,0,0,0-1.58-1.61h-8.65V7.36h9.95a1.58,1.58,0,0,0,1.58-1.58A1.6,1.6,0,0,0,292.8,4.2H281.1A1.75,1.75,0,0,0,279.32,6V22.54a1.75,1.75,0,0,0,1.78,1.78"/><path class="cls-2" d="M126.88,54.18A6.87,6.87,0,0,1,120,47.05v0a6.8,6.8,0,0,1,6.78-7.11,6.89,6.89,0,0,1,6.84,7.16v.06a6.77,6.77,0,0,1-6.78,7.07m-.06,3.28a10.31,10.31,0,0,0,10.55-10.41v0a10.52,10.52,0,0,0-21,0v.06a10.22,10.22,0,0,0,10.49,10.35"/><path class="cls-2" d="M146,55.5a1.77,1.77,0,0,0,3.53,0V48.92h8.68a1.61,1.61,0,0,0,0-3.22H149.5V40.21h10a1.61,1.61,0,1,0,0-3.22H147.75A1.76,1.76,0,0,0,146,38.77Z"/><path class="cls-2" d="M205.1,55.5a1.78,1.78,0,0,0,3.56,0V40.27h4.92a1.64,1.64,0,0,0,0-3.28H200.22a1.64,1.64,0,1,0,0,3.28h4.88Z"/><path class="cls-2" d="M225.23,55.5a1.77,1.77,0,0,0,3.53,0V48.63h9.6V55.5a1.77,1.77,0,0,0,3.54,0V38.6a1.77,1.77,0,0,0-3.54,0v6.76h-9.6V38.6a1.77,1.77,0,0,0-3.53,0Z"/><path class="cls-2" d="M254.42,57.11h11.84a1.58,1.58,0,0,0,1.58-1.58A1.6,1.6,0,0,0,266.26,54H256.17v-5.4h8.65A1.57,1.57,0,0,0,266.4,47a1.59,1.59,0,0,0-1.58-1.6h-8.65V40.15h9.95a1.58,1.58,0,0,0,1.58-1.58A1.6,1.6,0,0,0,266.12,37h-11.7a1.76,1.76,0,0,0-1.78,1.78V55.33a1.75,1.75,0,0,0,1.78,1.78"/><path class="cls-2" d="M117,88.32a1.7,1.7,0,0,0,1.73,1.73,1.72,1.72,0,0,0,1.75-1.73v-12l4.89,7.33a1.69,1.69,0,0,0,1.46.92,1.73,1.73,0,0,0,1.5-.92l4.91-7.38V88.3A1.79,1.79,0,0,0,135,90.05a1.75,1.75,0,0,0,1.78-1.75V71.46A1.78,1.78,0,0,0,135,69.67h-.38a1.79,1.79,0,0,0-1.61.92l-6.12,9.57-6.09-9.54a1.89,1.89,0,0,0-1.64-1h-.38A1.78,1.78,0,0,0,117,71.46Z"/><path class="cls-2" d="M151.76,88.3a1.77,1.77,0,0,0,3.53,0V71.4a1.77,1.77,0,0,0-3.53,0Z"/><path class="cls-2" d="M180,90.26a10.29,10.29,0,0,0,7.3-2.7,1.7,1.7,0,0,0,.58-1.27,1.68,1.68,0,0,0-1.67-1.63,1.6,1.6,0,0,0-1.06.4,7.25,7.25,0,0,1-5,1.92c-3.86,0-6.64-3.19-6.64-7.13v0c0-3.94,2.81-7.1,6.64-7.1a7.31,7.31,0,0,1,4.8,1.81,1.75,1.75,0,0,0,2.12-2.79,10.53,10.53,0,0,0-6.89-2.27,10.18,10.18,0,0,0-10.38,10.4v.06A10.12,10.12,0,0,0,180,90.26"/><path class="cls-2" d="M202.28,79.76V73h5.15c2.62,0,4.17,1.18,4.17,3.34v.06c0,2-1.61,3.36-4.14,3.36Zm-3.53,8.53a1.77,1.77,0,0,0,3.53,0v-5.4h4.46l4.89,6.24a2,2,0,0,0,1.72.92,1.67,1.67,0,0,0,1.7-1.64,2,2,0,0,0-.58-1.35l-3.85-4.86a5.94,5.94,0,0,0,4.57-6v-.06a6,6,0,0,0-1.67-4.34,8.06,8.06,0,0,0-5.8-2h-7.19a1.75,1.75,0,0,0-1.78,1.78Z"/><path class="cls-2" d="M233.59,87a6.87,6.87,0,0,1-6.84-7.13v-.06a6.8,6.8,0,0,1,6.78-7.1,6.9,6.9,0,0,1,6.85,7.16v.05A6.78,6.78,0,0,1,233.59,87m-.06,3.27a10.31,10.31,0,0,0,10.55-10.4v-.06a10.52,10.52,0,0,0-21,.06v.05a10.21,10.21,0,0,0,10.49,10.35"/><path class="cls-2" d="M260.13,90.19h.2a2.11,2.11,0,0,0,2-1.44l7.07-16.66a2.17,2.17,0,0,0,.17-.75,1.72,1.72,0,0,0-1.75-1.7,1.83,1.83,0,0,0-1.7,1.15l-5.89,14.63-5.81-14.51a1.84,1.84,0,0,0-1.81-1.27,1.75,1.75,0,0,0-1.78,1.73,2.07,2.07,0,0,0,.2.83l7,16.55a2.1,2.1,0,0,0,2,1.44"/><path class="cls-2" d="M281.1,89.9h11.84a1.57,1.57,0,0,0,1.58-1.57,1.59,1.59,0,0,0-1.58-1.58H282.85V81.34h8.65a1.57,1.57,0,0,0,1.58-1.55,1.6,1.6,0,0,0-1.58-1.61h-8.65V73h9.95a1.58,1.58,0,0,0,1.58-1.58,1.6,1.6,0,0,0-1.58-1.58H281.1a1.75,1.75,0,0,0-1.78,1.78V88.12a1.75,1.75,0,0,0,1.78,1.78"/><path class="cls-2" d="M359.87,89.62h11.84A1.58,1.58,0,0,0,373.29,88a1.6,1.6,0,0,0-1.58-1.58H361.62V81.05h8.65a1.57,1.57,0,0,0,1.58-1.55,1.6,1.6,0,0,0-1.58-1.61h-8.65V72.66h9.95a1.58,1.58,0,0,0,1.58-1.58,1.6,1.6,0,0,0-1.58-1.58h-11.7a1.75,1.75,0,0,0-1.78,1.78V87.84a1.75,1.75,0,0,0,1.78,1.78"/><path class="cls-2" d="M307.76,79.47V72.72h5.15c2.61,0,4.17,1.18,4.17,3.33v.06c0,2-1.61,3.36-4.14,3.36ZM304.23,88a1.77,1.77,0,0,0,3.53,0V82.6h4.46l4.89,6.24a2,2,0,0,0,1.72.92,1.66,1.66,0,0,0,1.69-1.64,2.08,2.08,0,0,0-.57-1.35l-3.85-4.86a5.94,5.94,0,0,0,4.57-6v-.06A6.1,6.1,0,0,0,319,71.51a8.13,8.13,0,0,0-5.81-2H306a1.75,1.75,0,0,0-1.78,1.78Z"/><path class="cls-2" d="M339.54,89.9c4.23,0,7.19-2.23,7.19-6v-.06c0-3.33-2.19-4.86-6.44-5.89-3.88-.92-4.8-1.61-4.8-3.16v-.06c0-1.32,1.21-2.39,3.28-2.39a8.38,8.38,0,0,1,4.63,1.53,1.69,1.69,0,0,0,.91.26A1.65,1.65,0,0,0,346,72.49a1.59,1.59,0,0,0-.78-1.41,11,11,0,0,0-6.38-1.87c-4,0-6.86,2.39-6.86,5.84v0c0,3.71,2.41,5,6.69,6,3.74.86,4.54,1.64,4.54,3.08v.06c0,1.49-1.38,2.53-3.56,2.53A8.75,8.75,0,0,1,334,84.71a1.56,1.56,0,0,0-1-.32A1.64,1.64,0,0,0,331.3,86a1.67,1.67,0,0,0,.68,1.35,12.56,12.56,0,0,0,7.56,2.52"/><path class="cls-2" d="M202.76,11.16l5.53-6.93L209.58,13ZM195,15.78a1.62,1.62,0,0,0,1.15,2,1.72,1.72,0,0,0,1.88-.66l2.65-3.3,9.43,2.55.6,4.06A1.8,1.8,0,0,0,212,22.08a1.65,1.65,0,0,0,2.05-1.2,1.54,1.54,0,0,0,0-.77l-2.86-18A2.22,2.22,0,0,0,209.55.13l-.17,0A2.26,2.26,0,0,0,207,.92L195.39,15.06a1.89,1.89,0,0,0-.43.72"/></svg>